<svg id="Capa_1" data-name="Capa 1" xmlns="http://www.w3.org/2000/svg" viewBox="0 0 48 48"><defs><style>.cls-1{fill:#fff;}.cls-2{fill:#fbfbf6;fill-rule:evenodd;}</style></defs><path class="cls-1" d="M24,4A20,20,0,1,0,44,24,20,20,0,0,0,24,4Zm0,37A17,17,0,1,1,41,24,17,17,0,0,1,24,41Z"/><path class="cls-2" d="M34.65,28.58c-.59-.29-3.45-1.69-4-1.88s-.92-.29-1.31.29-1.51,1.88-1.85,2.26-.68.43-1.27.14a15.7,15.7,0,0,1-4.68-2.87,17.49,17.49,0,0,1-3.24-4c-.33-.58,0-.89.26-1.18s.58-.68.88-1l.21-.28c.13-.21.23-.41.37-.69a1,1,0,0,0-.05-1c-.14-.29-1.31-3.14-1.8-4.3s-1-1-1.31-1-.73-.06-1.12-.06a2.2,2.2,0,0,0-1.56.72,6.49,6.49,0,0,0-2,4.83,7.23,7.23,0,0,0,.3,2,13.19,13.19,0,0,0,2.08,4c.29.38,4,6.41,10,8.73s5.93,1.54,7,1.44,3.44-1.39,3.92-2.75a4.85,4.85,0,0,0,.35-2.75C35.61,29,35.22,28.87,34.65,28.58Z"/></svg>