<svg id="Capa_1" data-name="Capa 1" xmlns="http://www.w3.org/2000/svg" viewBox="0 0 48 48"><defs><style>.cls-1{fill:#fff;}.cls-2{fill:#fbfbf6;}</style></defs><path class="cls-1" d="M24,4A20,20,0,1,0,44,24,20,20,0,0,0,24,4Zm0,37A17,17,0,1,1,41,24,17,17,0,0,1,24,41Z"/><rect class="cls-2" x="13.89" y="20.49" width="4.35" height="14.04"/><path class="cls-2" d="M16.05,18.65a2.59,2.59,0,1,0-2.57-2.59A2.58,2.58,0,0,0,16.05,18.65Z"/><path class="cls-2" d="M25.19,27.16c0-2,.9-3.15,2.64-3.15s2.37,1.13,2.37,3.15v7.37h4.32V25.64c0-3.76-2.13-5.58-5.1-5.58a4.91,4.91,0,0,0-4.24,2.32V20.49H21v14h4.16S25.19,29.32,25.19,27.16Z"/></svg>