<svg id="Capa_1" data-name="Capa 1" xmlns="http://www.w3.org/2000/svg" viewBox="0 0 48 48"><defs><style>.cls-1{fill:#fff;}.cls-2{fill:#fbfbf6;}</style></defs><path class="cls-1" d="M24,4A20,20,0,1,0,44,24,20,20,0,0,0,24,4Zm0,37A17,17,0,1,1,41,24,17,17,0,0,1,24,41Z"/><path class="cls-2" d="M33.19,15.24,24,22.72l-9.2-7.48a3.71,3.71,0,0,1,.64-.25,9.77,9.77,0,0,1,2.7-.4c1.52-.06,2-.08,5.84-.08s4.34,0,5.86.08a9.77,9.77,0,0,1,2.7.4A4.47,4.47,0,0,1,33.19,15.24Z"/><path class="cls-2" d="M35.8,28.58a5.51,5.51,0,0,1-.5,2.18,3.66,3.66,0,0,1-1.09,1.37,4.71,4.71,0,0,1-1.66.88,9.77,9.77,0,0,1-2.7.4c-1.52.06-2,.08-5.86.08s-4.32,0-5.84-.08a9.77,9.77,0,0,1-2.7-.4,4.71,4.71,0,0,1-1.66-.88,3.57,3.57,0,0,1-1.09-1.37,5.51,5.51,0,0,1-.5-2.18c-.07-1.25-.07-8.3,0-9.55a5.64,5.64,0,0,1,.5-2.2,3.72,3.72,0,0,1,.27-.48l9.93,8.1a.88.88,0,0,0,.17.16,1.5,1.5,0,0,0,1.86,0,.88.88,0,0,0,.17-.16v0L35,16.36a5.3,5.3,0,0,1,.28.47,5.64,5.64,0,0,1,.5,2.2C35.87,20.28,35.87,27.33,35.8,28.58Z"/></svg>